<svg width="277" height="80" viewBox="0 0 277 80" fill="none" xmlns="http://www.w3.org/2000/svg">
<path d="M81 18.06V25.56H98.22V60.06H105.72V25.56H122.94V18.06H81ZM156.888 40.62C158.028 40.5 159.108 40.2 160.128 39.72C164.028 37.92 166.728 33.96 166.728 29.4C166.728 26.28 165.468 23.46 163.428 21.42C161.388 19.38 158.568 18.12 155.448 18.12H128.928V60.12H136.428V40.8H143.928C146.628 40.8 148.968 42.24 150.288 44.4L150.468 44.76L154.488 52.62L158.328 60.12H166.728L162.888 52.62L156.888 40.62ZM136.428 33.36V25.62H155.448C156.768 25.62 157.668 26.22 158.148 26.7C158.568 27.12 159.288 28.08 159.288 29.46C159.288 30.96 158.388 32.34 157.008 32.94C156.528 33.18 155.988 33.3 155.448 33.3L136.428 33.36ZM209.416 52.5L191.836 18L174.256 52.5L170.416 60H178.816L182.656 52.5L191.836 34.5L201.016 52.5L204.856 60H213.256L209.416 52.5ZM215.379 60.18L215.499 60.06H215.379V60.18ZM257.379 60.06H257.319L257.379 60.18V60.06ZM257.379 18.06H247.959L236.439 33L224.919 18.06H215.439L231.699 39.12L215.559 60.06H225.039L236.499 45.24L247.959 60.06H257.439L241.239 39.12L257.499 18.06H257.379Z" fill="white"/>
<path d="M35.5002 29.0454C39.0646 29.0454 41.9556 31.9353 41.9556 35.5001C41.9556 39.0645 39.0646 41.9542 35.5002 41.9542C31.9354 41.9542 29.0457 39.0645 29.0457 35.5001C29.0459 31.9353 31.9354 29.0454 35.5002 29.0454Z" fill="white"/>
<path d="M10.3985 10.3975C-3.46585 24.2623 -3.46585 46.739 10.3985 60.6031C24.2625 74.4656 46.7391 74.4656 60.6031 60.6031C74.4656 46.7376 74.4656 24.2608 60.6031 10.3975C46.7378 -3.4651 24.2625 -3.46656 10.3985 10.3975ZM65.7083 39.1798L52.3627 36.3842C52.152 40.4106 50.5305 44.3774 47.4544 47.4526C40.8523 54.0564 30.1508 54.0564 23.5473 47.4526C21.3827 45.2892 19.943 42.6833 19.1992 39.9243L6.22503 43.8215C5.11038 39.8796 4.80565 35.7579 5.30644 31.7169L18.6469 34.421C18.8969 30.4622 20.5209 26.5737 23.5462 23.5485C30.1493 16.9447 40.8508 16.9447 47.453 23.5485C49.576 25.6703 51.0027 28.214 51.7628 30.9114L64.8515 27.456C65.8962 31.2777 66.1804 35.2665 65.7083 39.1798Z" fill="white"/>
</svg>
